<svg viewBox="0 0 160 160" fill="none" xmlns="http://www.w3.org/2000/svg">
  <defs>
    <linearGradient id="ca" x1="0" y1="0" x2="1" y2="1">
      <stop offset="0%" stop-color="#3a86ff"/>
      <stop offset="100%" stop-color="#9d4edd"/>
    </linearGradient>
    <linearGradient id="cb" x1="0" y1="0" x2="1" y2="1">
      <stop offset="0%" stop-color="#2a6eee"/>
      <stop offset="100%" stop-color="#8535cc"/>
    </linearGradient>
    <linearGradient id="cc" x1="0" y1="0" x2="1" y2="1">
      <stop offset="0%" stop-color="#1a52cc"/>
      <stop offset="100%" stop-color="#6822aa"/>
    </linearGradient>
  </defs>

  <!-- LEFT STACK (5 chips) -->
  <!-- chip 5 (bottom) -->
  <ellipse cx="52" cy="134" rx="38" ry="10" fill="url(#cc)"/>
  <rect x="14" y="122" width="76" height="12" fill="url(#cc)"/>
  <ellipse cx="52" cy="122" rx="38" ry="10" fill="url(#cb)"/>
  <rect x="14" y="122" width="5" height="12" rx="2" fill="white" opacity="0.16"/>
  <rect x="35" y="122" width="5" height="12" rx="2" fill="white" opacity="0.16"/>
  <rect x="64" y="122" width="5" height="12" rx="2" fill="white" opacity="0.16"/>
  <rect x="85" y="122" width="5" height="12" rx="2" fill="white" opacity="0.16"/>

  <!-- chip 4 -->
  <ellipse cx="52" cy="110" rx="38" ry="10" fill="url(#cb)"/>
  <rect x="14" y="98" width="76" height="12" fill="url(#cb)"/>
  <ellipse cx="52" cy="98" rx="38" ry="10" fill="url(#ca)"/>
  <rect x="14" y="98" width="5" height="12" rx="2" fill="white" opacity="0.18"/>
  <rect x="35" y="98" width="5" height="12" rx="2" fill="white" opacity="0.18"/>
  <rect x="64" y="98" width="5" height="12" rx="2" fill="white" opacity="0.18"/>
  <rect x="85" y="98" width="5" height="12" rx="2" fill="white" opacity="0.18"/>

  <!-- chip 3 -->
  <ellipse cx="52" cy="86" rx="38" ry="10" fill="url(#ca)"/>
  <rect x="14" y="74" width="76" height="12" fill="url(#ca)"/>
  <ellipse cx="52" cy="74" rx="38" ry="10" fill="url(#ca)"/>
  <rect x="14" y="74" width="5" height="12" rx="2" fill="white" opacity="0.20"/>
  <rect x="35" y="74" width="5" height="12" rx="2" fill="white" opacity="0.20"/>
  <rect x="64" y="74" width="5" height="12" rx="2" fill="white" opacity="0.20"/>
  <rect x="85" y="74" width="5" height="12" rx="2" fill="white" opacity="0.20"/>

  <!-- chip 2 -->
  <ellipse cx="52" cy="62" rx="38" ry="10" fill="url(#ca)"/>
  <rect x="14" y="50" width="76" height="12" fill="url(#ca)"/>
  <ellipse cx="52" cy="50" rx="38" ry="10" fill="url(#ca)"/>
  <rect x="14" y="50" width="5" height="12" rx="2" fill="white" opacity="0.22"/>
  <rect x="35" y="50" width="5" height="12" rx="2" fill="white" opacity="0.22"/>
  <rect x="64" y="50" width="5" height="12" rx="2" fill="white" opacity="0.22"/>
  <rect x="85" y="50" width="5" height="12" rx="2" fill="white" opacity="0.22"/>

  <!-- chip 1 (top) -->
  <ellipse cx="52" cy="38" rx="38" ry="10" fill="url(#ca)"/>
  <rect x="14" y="26" width="76" height="12" fill="url(#ca)"/>
  <ellipse cx="52" cy="26" rx="38" ry="10" fill="url(#ca)"/>
  <rect x="14" y="26" width="5" height="12" rx="2" fill="white" opacity="0.22"/>
  <rect x="35" y="26" width="5" height="12" rx="2" fill="white" opacity="0.22"/>
  <rect x="64" y="26" width="5" height="12" rx="2" fill="white" opacity="0.22"/>
  <rect x="85" y="26" width="5" height="12" rx="2" fill="white" opacity="0.22"/>
  <ellipse cx="52" cy="26" rx="26" ry="7" fill="white" opacity="0.12"/>
  <text x="52" y="31" font-family="Inter, Arial, sans-serif" font-size="18" font-weight="900" fill="white" opacity="0.88" text-anchor="middle">$</text>

  <!-- RIGHT STACK (3 chips) -->
  <!-- chip 3 (bottom) -->
  <ellipse cx="118" cy="134" rx="30" ry="8" fill="url(#cc)"/>
  <rect x="88" y="124" width="60" height="10" fill="url(#cc)"/>
  <ellipse cx="118" cy="124" rx="30" ry="8" fill="url(#cb)"/>
  <rect x="88" y="124" width="4" height="10" rx="2" fill="white" opacity="0.16"/>
  <rect x="106" y="124" width="4" height="10" rx="2" fill="white" opacity="0.16"/>
  <rect x="126" y="124" width="4" height="10" rx="2" fill="white" opacity="0.16"/>
  <rect x="144" y="124" width="4" height="10" rx="2" fill="white" opacity="0.16"/>

  <!-- chip 2 -->
  <ellipse cx="118" cy="112" rx="30" ry="8" fill="url(#cb)"/>
  <rect x="88" y="102" width="60" height="10" fill="url(#cb)"/>
  <ellipse cx="118" cy="102" rx="30" ry="8" fill="url(#ca)"/>
  <rect x="88" y="102" width="4" height="10" rx="2" fill="white" opacity="0.18"/>
  <rect x="106" y="102" width="4" height="10" rx="2" fill="white" opacity="0.18"/>
  <rect x="126" y="102" width="4" height="10" rx="2" fill="white" opacity="0.18"/>
  <rect x="144" y="102" width="4" height="10" rx="2" fill="white" opacity="0.18"/>

  <!-- chip 1 (top) -->
  <ellipse cx="118" cy="100" rx="30" ry="8" fill="url(#ca)"/>
  <rect x="88" y="74" width="60" height="26" fill="url(#ca)"/>
  <ellipse cx="118" cy="74" rx="30" ry="8" fill="url(#ca)"/>
  <rect x="88" y="74" width="4" height="26" rx="2" fill="white" opacity="0.20"/>
  <rect x="106" y="74" width="4" height="26" rx="2" fill="white" opacity="0.20"/>
  <rect x="126" y="74" width="4" height="26" rx="2" fill="white" opacity="0.20"/>
  <rect x="144" y="74" width="4" height="26" rx="2" fill="white" opacity="0.20"/>
  <ellipse cx="118" cy="74" rx="20" ry="5" fill="white" opacity="0.13"/>
</svg>
