<svg viewBox="0 0 160 160" fill="none" xmlns="http://www.w3.org/2000/svg">
  <defs>
    <linearGradient id="hg" x1="0" y1="0" x2="1" y2="1">
      <stop offset="0%" stop-color="#3a86ff"/>
      <stop offset="100%" stop-color="#9d4edd"/>
    </linearGradient>
    <linearGradient id="hg2" x1="0" y1="0" x2="1" y2="1">
      <stop offset="0%" stop-color="#2563eb"/>
      <stop offset="100%" stop-color="#7c3aed"/>
    </linearGradient>
  </defs>

  <!-- Left card (behind, tilted left) -->
  <g transform="rotate(-12, 60, 85)">
    <rect x="26" y="38" width="68" height="94" rx="11" fill="url(#hg2)" opacity="0.85"/>
    <!-- Heart -->
    <path d="M60 96 C60 96 38 82 38 69 C38 60 46 55 54 61 C56 56 60 53 60 53 C60 53 64 56 66 61 C74 55 82 60 82 69 C82 82 60 96 60 96 Z" fill="white" opacity="0.8"/>
  </g>

  <!-- Right card (front, tilted right) -->
  <g transform="rotate(12, 100, 85)">
    <rect x="66" y="38" width="68" height="94" rx="11" fill="url(#hg)"/>
    <!-- Shine -->
    <rect x="74" y="47" width="30" height="15" rx="5" fill="white" opacity="0.12"/>
    <!-- Heart -->
    <path d="M100 96 C100 96 78 82 78 69 C78 60 86 55 94 61 C96 56 100 53 100 53 C100 53 104 56 106 61 C114 55 122 60 122 69 C122 82 100 96 100 96 Z" fill="white" opacity="0.9"/>
  </g>
</svg>
