<svg width="240" height="240" viewBox="0 0 240 240" fill="none" xmlns="http://www.w3.org/2000/svg">
  <defs>
    <linearGradient id="rangesGrad" x1="0" y1="0" x2="240" y2="240">
      <stop offset="0%" stop-color="#3a86ff"/>
      <stop offset="100%" stop-color="#9d4edd"/>
    </linearGradient>
  </defs>
  <circle cx="120" cy="120" r="100" fill="none" stroke="url(#rangesGrad)" stroke-width="2"/>
  <g fill="url(#rangesGrad)">
    <rect x="70" y="75" width="12" height="12" rx="2"/>
    <rect x="87" y="75" width="12" height="12" rx="2"/>
    <rect x="104" y="75" width="12" height="12" rx="2"/>
    <rect x="121" y="75" width="12" height="12" rx="2"/>
    <rect x="138" y="75" width="12" height="12" rx="2"/>
    <rect x="155" y="75" width="12" height="12" rx="2"/>
    <rect x="70" y="92" width="12" height="12" rx="2"/>
    <rect x="87" y="92" width="12" height="12" rx="2"/>
    <rect x="104" y="92" width="12" height="12" rx="2" opacity="0.7"/>
    <rect x="121" y="92" width="12" height="12" rx="2" opacity="0.7"/>
    <rect x="138" y="92" width="12" height="12" rx="2" opacity="0.7"/>
    <rect x="155" y="92" width="12" height="12" rx="2" opacity="0.7"/>
    <rect x="70" y="109" width="12" height="12" rx="2" opacity="0.5"/>
    <rect x="87" y="109" width="12" height="12" rx="2" opacity="0.5"/>
    <rect x="104" y="109" width="12" height="12" rx="2" opacity="0.3"/>
    <rect x="121" y="109" width="12" height="12" rx="2" opacity="0.3"/>
    <rect x="138" y="109" width="12" height="12" rx="2" opacity="0.3"/>
    <rect x="155" y="109" width="12" height="12" rx="2" opacity="0.3"/>
  </g>
  <text x="120" y="200" font-family="Inter" font-size="16" font-weight="700" fill="url(#rangesGrad)" text-anchor="middle">RANGES</text>
</svg>
